# xmcd
#
# Track frame offsets:
#	150
#	19202
#	37027
#	58910
#	79897
#	100300
#	119880
#	138305
#	159777
#	167952
#	189562
#	209640
#
# Disc length: 3123
#
# Revision: 1
# Processed by: cddbd v1.5.1PL0 Copyright (c) Steve Scherf et al.
# Submitted via: dBpowerAMP V4.0
# Normalized: r0:TRMNUM
#
DISCID=b20c310c
DTITLE=Shola Ama  - Much Love
DYEAR=1997
DGENRE=R&B
TTITLE0=You're The One I Love
TTITLE1=Much Love
TTITLE2=You Might Need Somebody
TTITLE3=Who's Loving My Baby
TTITLE4=Celebrate
TTITLE5=I Love Your Ways
TTITLE6=We Got A Vibe
TTITLE7=Summer Love
TTITLE8=(I Don't Know) Interlude
TTITLE9=I Can Show You
TTITLE10=All Mine
TTITLE11=One Love
EXTD=
EXTT0=
EXTT1=
EXTT2=
EXTT3=
EXTT4=
EXTT5=
EXTT6=
EXTT7=
EXTT8=
EXTT9=
EXTT10=
EXTT11=
PLAYORDER=
